<svg width="100" height="100" viewBox="0 0 800 800" fill="none" xmlns="http://www.w3.org/2000/svg">
<path d="M5.01406 263.747L45.6406 296.214L27.6 341.761C25.5594 346.947 26.9469 352.855 31.0937 356.587C33.5875 358.841 36.7734 360.002 40 360.002C42.1203 360.002 44.2406 359.495 46.1859 358.481L94.2922 333.255L140.278 358.361C145.119 361.028 151.105 360.402 155.305 356.828C159.505 353.255 161.078 347.455 159.237 342.242L143.12 296.453L181.961 263.506C186.228 259.88 187.775 253.986 185.855 248.733C183.922 243.492 178.922 240 173.334 240H126.094L105.48 194.494C103.32 189.72 98.5734 186.667 93.3328 186.667H93.3062C88.0531 186.681 83.3063 189.761 81.1594 194.547L60.8141 240H13.3344C7.66719 240 2.62812 243.586 0.748436 248.92C-1.11875 254.267 0.587498 260.214 5.01406 263.747ZM69.4547 266.667C74.7078 266.667 79.4688 263.587 81.6281 258.787L93.4016 232.467L105.361 258.841C107.508 263.614 112.267 266.667 117.494 266.667H137.014L118.881 282.053C114.667 285.627 113.081 291.427 114.922 296.653L122.548 318.294L100.828 306.427C98.8281 305.347 96.6281 304.8 94.4281 304.8C92.3078 304.8 90.175 305.306 88.2422 306.32L65.6156 318.173L74.0687 296.853C76.2281 291.4 74.575 285.186 69.9891 281.533L51.3891 266.666H69.4547V266.667Z" fill="#390F63"/>
<path d="M106.667 533.334C99.3078 533.334 93.3344 539.308 93.3344 546.667V600C93.3344 607.359 99.3078 613.333 106.667 613.333C114.027 613.333 120 607.361 120 600V546.667C120 539.308 114.027 533.334 106.667 533.334Z" fill="#390F63"/>
<path d="M288.308 122.041C292.041 124.92 319.294 144.894 332.788 154.773L316.255 211.52C312.695 221.988 315.228 228.761 317.975 232.6C324.308 241.427 338.908 242.267 349.295 235.013C354.628 231.306 385.175 209.48 399.763 199.066C414.283 209.439 444.603 231.106 450.177 234.972C454.936 238.305 460.709 240.212 466.003 240.212C472.256 240.212 477.897 237.559 481.456 232.933C484.309 229.239 487.136 222.639 484.403 212.227C481.63 201.667 473.777 170.012 470.016 154.759L511.109 122.866C518.536 117.092 521.789 106.719 519.003 97.6797C516.377 89.1203 509.056 83.4266 500.177 82.8531C493.991 82.3469 461.363 79.4391 445.897 78.0672L420.803 15.6406C416.934 6 408.908 0 399.867 0C390.32 0 382.188 6.65312 379.388 16.1594C377.067 22.4797 363.12 61.0656 356.973 78.0531L299.067 82.9594C290.108 83.7188 283.014 89.3859 280.561 97.7453C277.988 106.573 281.173 116.573 288.308 122.041ZM367.747 103.906C372.934 103.466 377.388 100.053 379.161 95.1594C379.161 95.1594 392.867 57.1734 400.388 36.3859L424.202 95.6C426.081 100.253 430.402 103.467 435.388 103.906C435.388 103.906 467.534 106.773 486.241 108.413L446.814 139C442.655 142.227 440.788 147.614 442.041 152.733C442.041 152.733 449.894 184.6 455.227 205.88C438.186 193.759 407.52 171.827 407.52 171.827C405.2 170.159 402.494 169.333 399.761 169.333C397.055 169.333 394.334 170.159 392.014 171.827C392.014 171.827 363.573 192.159 346.028 204.641L361.002 153.267C362.575 147.88 360.602 142.094 356.081 138.773C356.081 138.773 329.867 119.6 314.681 108.4L367.747 103.906Z" fill="#390F63"/>
<path d="M618.347 370.414L658.973 402.881L640.933 448.428C638.88 453.614 640.28 459.522 644.412 463.255C646.933 465.508 650.119 466.669 653.333 466.669C655.439 466.669 657.559 466.163 659.519 465.148L707.625 439.922L753.611 465.028C758.452 467.695 764.437 467.069 768.625 463.495C772.839 459.922 774.411 454.122 772.572 448.909L756.452 403.123L795.278 370.177C799.558 366.55 801.105 360.656 799.172 355.403C797.252 350.163 792.252 346.67 786.666 346.67H739.425L718.811 301.164C716.652 296.391 711.905 293.338 706.664 293.338H706.637C701.384 293.352 696.637 296.431 694.491 301.217L674.158 346.67H626.664C620.997 346.67 615.944 350.256 614.091 355.591C612.214 360.934 613.92 366.88 618.347 370.414ZM682.787 373.334C688.055 373.334 692.814 370.255 694.961 365.455L706.747 339.134L718.68 365.508C720.839 370.281 725.6 373.334 730.827 373.334H750.333L732.212 388.72C727.998 392.294 726.412 398.094 728.253 403.32L735.866 424.961L714.159 413.094C712.159 412.014 709.959 411.467 707.759 411.467C705.639 411.467 703.506 411.973 701.573 412.988L678.959 424.841L687.4 403.52C689.559 398.067 687.906 391.853 683.32 388.2L664.72 373.333H682.787V373.334Z" fill="#390F63"/>
<path d="M786.667 560H600C592.627 560 586.667 565.973 586.667 573.333C586.667 580.692 592.627 586.666 600 586.666H773.333V786.666C773.333 794.025 779.292 799.998 786.666 799.998C794.039 799.998 799.998 794.025 799.998 786.666V573.334C800 565.973 794.041 560 786.667 560Z" fill="#390F63"/>
<path d="M613.334 640C605.961 640 600.002 645.973 600.002 653.333V706.666C600.002 714.025 605.961 719.998 613.334 719.998C620.708 719.998 626.667 714.025 626.667 706.666V653.333C626.667 645.973 620.708 640 613.334 640Z" fill="#390F63"/>
<path d="M666.667 640C659.294 640 653.334 645.973 653.334 653.333V706.666C653.334 714.025 659.294 719.998 666.667 719.998C674.041 719.998 680 714.025 680 706.666V653.333C680 645.973 674.041 640 666.667 640Z" fill="#390F63"/>
<path d="M720 640C712.627 640 706.667 645.973 706.667 653.333V706.666C706.667 714.025 712.627 719.998 720 719.998C727.373 719.998 733.333 714.025 733.333 706.666V653.333C733.334 645.973 727.373 640 720 640Z" fill="#390F63"/>
<path d="M160 533.334C152.641 533.334 146.667 539.308 146.667 546.667V600C146.667 607.359 152.641 613.333 160 613.333C167.359 613.333 173.333 607.359 173.333 600V546.667C173.334 539.308 167.361 533.334 160 533.334Z" fill="#390F63"/>
<path d="M546.667 320H253.334C245.975 320 240.002 325.973 240.002 333.333V786.666C240.002 794.025 245.975 799.998 253.334 799.998C260.694 799.998 266.667 794.025 266.667 786.666V346.666H533.334V786.666C533.334 794.025 539.294 799.998 546.667 799.998C554.041 799.998 560 794.025 560 786.666V333.334C560 325.973 554.041 320 546.667 320Z" fill="#390F63"/>
<path d="M200 453.334H13.3344C5.97503 453.334 0.00158722 459.308 0.00158722 466.667V786.667C2.47205e-05 794.027 5.97346 800 13.3344 800C20.6953 800 26.6672 794.027 26.6672 786.667V480H200C207.359 480 213.333 474.027 213.333 466.667C213.333 459.308 207.361 453.334 200 453.334Z" fill="#390F63"/>
<path d="M400 400C392.641 400 386.667 405.973 386.667 413.333V466.666C386.667 474.025 392.641 479.998 400 479.998C407.359 479.998 413.333 474.025 413.333 466.666V413.333C413.334 405.973 407.361 400 400 400Z" fill="#390F63"/>
</svg>
